<svg xmlns="http://www.w3.org/2000/svg" viewBox="0 0 19 19">
  <path d="M9.5,0A9.5,9.5,0,0,0,5.69,18.2,8.39,8.39,0,0,1,5.85,16l1.22-5.18a3.65,3.65,0,0,1-.3-1.5c0-1.41.82-2.46,1.83-2.46A1.27,1.27,0,0,1,9.89,8.31,20.57,20.57,0,0,1,9,11.68a1.47,1.47,0,0,0,1.5,1.83c1.8,0,3-2.31,3-5.05,0-2.08-1.4-3.64-4-3.64A4.5,4.5,0,0,0,4.93,9.37a2.74,2.74,0,0,0,.63,1.86,0.46,0.46,0,0,1,.14.53l-0.19.76a0.33,0.33,0,0,1-.48.24c-1.33-.54-1.95-2-1.95-3.63,0-2.7,2.28-5.93,6.79-5.93a5.68,5.68,0,0,1,6,5.44c0,3.73-2.07,6.51-5.13,6.51A2.72,2.72,0,0,1,8.44,14s-0.55,2.19-.67,2.61a8,8,0,0,1-1,2A9.5,9.5,0,1,0,9.5,0Z"/>
</svg>
