<svg xmlns="http://www.w3.org/2000/svg" viewBox="0 0 15.14 13.38">
  <path d="M13.59,3.33V3.77c0,4.46-3.12,9.61-8.84,9.61A8.3,8.3,0,0,1,0,11.86a5.51,5.51,0,0,0,.74,0A5.91,5.91,0,0,0,4.6,10.46,3.14,3.14,0,0,1,1.7,8.12a2.88,2.88,0,0,0,.58.06A2.92,2.92,0,0,0,3.1,8.06,3.32,3.32,0,0,1,.61,4.74v0A2.91,2.91,0,0,0,2,5.13,3.47,3.47,0,0,1,.63,2.32,3.63,3.63,0,0,1,1.05.62a8.62,8.62,0,0,0,6.4,3.53,3.69,3.69,0,0,1-.08-0.77A3.25,3.25,0,0,1,10.48,0a3,3,0,0,1,2.27,1.07,6,6,0,0,0,2-.82,3.37,3.37,0,0,1-1.36,1.87,5.77,5.77,0,0,0,1.78-.53A6.71,6.71,0,0,1,13.59,3.33Z"/>
</svg>
