<?xml version="1.0" encoding="utf-8"?>
<!-- Generator: Adobe Illustrator 21.0.0, SVG Export Plug-In . SVG Version: 6.00 Build 0)  -->
<svg version="1.1" id="Layer_1" xmlns="http://www.w3.org/2000/svg" xmlns:xlink="http://www.w3.org/1999/xlink" x="0px" y="0px"
	 viewBox="0 0 16 16" style="enable-background:new 0 0 16 16;" xml:space="preserve">
<path d="M5.9,10.4V5.2C7.6,6.1,9.4,7,11.1,7.8C9.4,8.7,7.6,9.5,5.9,10.4 M15.8,4.3c-0.2-0.9-0.9-1.5-1.7-1.5c-2-0.3-4-0.3-6-0.3
	c-2.1,0-4,0-6,0.3c-0.9,0-1.6,0.6-1.8,1.5C0,5.4,0,6.8,0,8s0,2.5,0.3,3.7c0.2,0.9,0.9,1.5,1.7,1.5c2,0.3,4,0.3,6,0.3s4,0,6-0.3
	c0.9-0.1,1.5-0.7,1.7-1.5C16,10.5,16,9.2,16,8S16.1,5.4,15.8,4.3"/>
</svg>
